<?xml version="1.0" encoding="UTF-8"?><svg id="Capa_2" xmlns="http://www.w3.org/2000/svg" xmlns:xlink="http://www.w3.org/1999/xlink" viewBox="0 0 1821.41 621.2"><defs><style>.cls-1{fill:#003e56;}.cls-2{fill:#008bff;}.cls-3{fill:url(#Degradado_sin_nombre_31);}.cls-4{fill:url(#Degradado_sin_nombre_31-2);}</style><linearGradient id="Degradado_sin_nombre_31" x1="-2470.85" y1="4944.82" x2="-2895.8" y2="4944.82" gradientTransform="translate(6049.14 742.75) rotate(67.44)" gradientUnits="userSpaceOnUse"><stop offset="0" stop-color="#008bff"/><stop offset=".08" stop-color="#008bff" stop-opacity=".85"/><stop offset=".22" stop-color="#008bff" stop-opacity=".63"/><stop offset=".36" stop-color="#008bff" stop-opacity=".44"/><stop offset=".5" stop-color="#008bff" stop-opacity=".28"/><stop offset=".63" stop-color="#008bff" stop-opacity=".16"/><stop offset=".76" stop-color="#008bff" stop-opacity=".07"/><stop offset=".89" stop-color="#008bff" stop-opacity=".02"/><stop offset="1" stop-color="#008bff" stop-opacity="0"/></linearGradient><linearGradient id="Degradado_sin_nombre_31-2" x1="7657.77" y1="4537.5" x2="7232.82" y2="4537.5" gradientTransform="translate(-1101.14 9079.46) rotate(-112.71)" xlink:href="#Degradado_sin_nombre_31"/></defs><g id="Capa_1-2"><path class="cls-2" d="m75.22,310.57c0-68.37,26.62-132.64,74.97-180.99,48.34-48.34,112.62-74.97,180.99-74.97,68.37,0,132.64,26.62,180.99,74.97,48.34,48.34,74.97,112.62,74.97,180.99,0,68.37-26.62,132.64-74.97,180.99-48.34,48.34-112.62,74.97-180.99,74.97-68.37,0-132.65-26.62-180.99-74.97-48.34-48.34-74.97-112.62-74.97-180.99Zm463.04,0c0-114.18-92.9-207.08-207.08-207.08-114.18,0-207.08,92.9-207.08,207.08,0,114.18,92.9,207.08,207.08,207.08,114.18,0,207.08-92.9,207.08-207.08Z"/><path class="cls-3" d="m602.39,189.63c14.1,33.94,21.39,69.01,22.5,103.69.25,7.87,5.48,14.72,12.97,17.14h0c12.55,4.06,25.36-5.77,24.5-18.93-2.17-33.29-9.75-66.8-23.26-99.32C573.06,33.22,390.63-42.11,231.66,23.94c-2.59,1.07-5.15,2.18-7.69,3.32,148.77-57.17,316.9,14.29,378.42,162.37Z"/><path class="cls-4" d="m60.29,432.24c-14.19-33.9-21.57-68.95-22.78-103.63-.27-7.87-5.51-14.7-13.01-17.1h0c-12.56-4.03-25.34,5.84-24.45,19,2.25,33.29,9.93,66.77,23.53,99.26,66.47,158.8,249.1,233.65,407.9,167.17,2.58-1.08,5.14-2.2,7.68-3.34-148.62,57.57-316.94-13.44-378.86-161.36Z"/><path class="cls-1" d="m786.18,289.82v-.62c0-46.52,35.98-85.6,85.29-85.6,30.7,0,49.93,11.47,65.44,28.22l-23.57,25.12c-11.47-12.1-23.57-20.47-42.18-20.47-27.29,0-47.45,23.57-47.45,52.1v.62c0,29.15,20.16,52.41,49,52.41,17.68,0,30.7-8.06,42.49-20.16l22.64,22.33c-16.13,17.99-35.04,30.7-66.99,30.7-48.69,0-84.67-38.15-84.67-84.67Z"/><path class="cls-1" d="m974.43,207.01h37.53v163.75h-37.53v-163.75Zm35.97-71.64l34.11,15.2-38.14,35.66h-28.22l32.25-50.86Z"/><path class="cls-1" d="m1060.95,207.01h37.52v36.91c10.24-24.5,29.15-41.25,57.99-40.01v39.7h-2.17c-32.87,0-55.82,21.4-55.82,64.82v62.34h-37.52v-163.75Z"/><path class="cls-1" d="m1174.46,289.82v-.62c0-46.52,35.98-85.6,85.29-85.6,30.7,0,49.93,11.47,65.44,28.22l-23.57,25.12c-11.47-12.1-23.57-20.47-42.18-20.47-27.29,0-47.45,23.57-47.45,52.1v.62c0,29.15,20.16,52.41,49,52.41,17.68,0,30.7-8.06,42.49-20.16l22.64,22.33c-16.13,17.99-35.04,30.7-66.99,30.7-48.69,0-84.67-38.15-84.67-84.67Z"/><path class="cls-1" d="m1358.68,311.22v-104.2h37.53v93.04c0,25.43,12.72,39.7,35.04,39.7s36.91-14.89,36.91-40.32v-92.42h37.84v163.75h-37.84v-25.43c-10.55,15.51-25.74,28.84-51.17,28.84-36.9,0-58.3-24.81-58.3-62.96Z"/><path class="cls-1" d="m1554.99,144.37h37.53v226.4h-37.53v-226.4Z"/><path class="cls-1" d="m1632.52,289.82v-.62c0-46.83,37.22-85.6,87.46-85.6s87.15,38.14,87.15,84.98v.62c0,46.52-37.22,85.29-87.77,85.29s-86.84-38.15-86.84-84.67Zm137.08,0v-.62c0-28.84-20.78-52.72-50.24-52.72s-49.31,23.57-49.31,52.1v.62c0,28.53,20.78,52.41,49.93,52.41s49.62-23.57,49.62-51.79Z"/><path class="cls-1" d="m1807.87,188.4c7.53,0,13.54,6.09,13.54,13.73s-6.02,13.77-13.54,13.77-13.35-6.05-13.35-13.77,5.98-13.73,13.35-13.73Zm0,25.46c6.43,0,11.35-5.11,11.35-11.73s-4.92-11.69-11.35-11.69-11.12,5.14-11.12,11.69,4.84,11.73,11.12,11.73Zm-4.46-19.1h5.26c2.61,0,4.43,1.74,4.43,4.39,0,2.19-1.4,3.56-2.76,3.9v.07s.15.19.49.83l2.84,5.56h-2.35l-2.95-5.98h-2.84v5.98h-2.12v-14.75Zm4.88,7.11c1.59,0,2.61-1.02,2.61-2.72s-1.02-2.61-2.61-2.61h-2.76v5.33h2.76Z"/><path class="cls-1" d="m787.5,465.95v-.22c0-18.8,13.69-29.93,27.48-29.93,10.68,0,17.58,5.79,22.03,12.24v-34.71h8.57v81.22h-8.57v-11.57c-4.67,6.9-11.46,12.8-22.03,12.8-13.8,0-27.48-10.9-27.48-29.82Zm49.85-.11v-.22c0-13.24-10.12-22.14-20.81-22.14s-20.25,8.23-20.25,22.14v.22c0,13.58,9.45,22.25,20.25,22.25s20.81-9.01,20.81-22.25Z"/><path class="cls-1" d="m861.15,465.95v-.22c0-16.58,11.68-29.93,27.59-29.93,17.02,0,26.82,13.57,26.82,30.38,0,1.11,0,1.78-.11,2.78h-45.62c1.22,12.46,10.01,19.47,20.25,19.47,7.9,0,13.47-3.23,18.14-8.12l5.34,4.78c-5.78,6.45-12.8,10.79-23.7,10.79-15.8,0-28.7-12.13-28.7-29.93Zm45.73-3.34c-.89-10.46-6.9-19.58-18.36-19.58-10.01,0-17.58,8.34-18.69,19.58h37.05Z"/><path class="cls-1" d="m960.38,466.07v-.22c0-16.24,12.68-30.04,29.48-30.04,10.9,0,17.69,4.56,23.03,10.24l-5.68,6.01c-4.56-4.79-9.68-8.68-17.47-8.68-11.68,0-20.58,9.9-20.58,22.25v.22c0,12.46,9.12,22.37,21.14,22.37,7.35,0,13.02-3.67,17.58-8.57l5.45,5.12c-5.79,6.45-12.68,11.13-23.48,11.13-16.8,0-29.48-13.69-29.48-29.82Z"/><path class="cls-1" d="m1027.46,437.02h8.57v15.02c4.22-9.57,12.57-16.47,23.48-16.02v9.24h-.67c-12.57,0-22.81,9.01-22.81,26.37v22.92h-8.57v-57.53Z"/><path class="cls-1" d="m1066.51,465.95v-.22c0-16.58,11.68-29.93,27.6-29.93,17.02,0,26.81,13.57,26.81,30.38,0,1.11,0,1.78-.11,2.78h-45.62c1.22,12.46,10.02,19.47,20.25,19.47,7.9,0,13.46-3.23,18.14-8.12l5.34,4.78c-5.79,6.45-12.8,10.79-23.7,10.79-15.8,0-28.71-12.13-28.71-29.93Zm45.73-3.34c-.89-10.46-6.9-19.58-18.36-19.58-10.01,0-17.58,8.34-18.7,19.58h37.06Zm-11.24-50.41l8.91,4.12-12.69,12.02h-6.67l10.45-16.13Z"/><path class="cls-1" d="m1132.6,465.95v-.22c0-18.8,13.68-29.93,27.48-29.93,10.68,0,17.58,5.79,22.03,12.24v-34.71h8.57v81.22h-8.57v-11.57c-4.68,6.9-11.46,12.8-22.03,12.8-13.8,0-27.48-10.9-27.48-29.82Zm49.85-.11v-.22c0-13.24-10.12-22.14-20.8-22.14s-20.25,8.23-20.25,22.14v.22c0,13.58,9.46,22.25,20.25,22.25s20.8-9.01,20.8-22.25Z"/><path class="cls-1" d="m1210.02,414.99h9.79v9.46h-9.79v-9.46Zm.56,22.03h8.57v57.53h-8.57v-57.53Z"/><path class="cls-1" d="m1242.06,479.31v-34.72h-8.01v-7.57h8.01v-17.36h8.57v17.36h18.25v7.57h-18.25v33.61c0,7.01,3.89,9.57,9.68,9.57,2.89,0,5.34-.55,8.35-2v7.34c-3.01,1.56-6.23,2.45-10.35,2.45-9.23,0-16.24-4.56-16.24-16.24Z"/><path class="cls-1" d="m1278.77,466.07v-.22c0-16.24,12.68-30.04,30.04-30.04s29.93,13.57,29.93,29.82v.22c0,16.25-12.8,30.04-30.16,30.04s-29.82-13.57-29.82-29.82Zm51.19,0v-.22c0-12.35-9.24-22.48-21.37-22.48s-21.03,10.13-21.03,22.25v.22c0,12.35,9.12,22.37,21.25,22.37s21.14-10.01,21.14-22.14Z"/></g></svg>